<svg width="145" height="17" viewBox="0 0 145 17" fill="none" xmlns="http://www.w3.org/2000/svg">
<path d="M8.75 13H7.14062L1.89062 7.20312V13H0.5625V1.57812H1.89062V7.10938L7.00781 1.57812H8.53125L3.47656 7.125L8.75 13ZM17.5156 8.70312C17.5156 9.40625 17.4245 10.0339 17.2422 10.5859C17.0599 11.138 16.7969 11.6042 16.4531 11.9844C16.1094 12.3646 15.6927 12.6562 15.2031 12.8594C14.7188 13.0573 14.1693 13.1562 13.5547 13.1562C12.9818 13.1562 12.4557 13.0573 11.9766 12.8594C11.5026 12.6562 11.0911 12.3646 10.7422 11.9844C10.3984 11.6042 10.1302 11.138 9.9375 10.5859C9.75 10.0339 9.65625 9.40625 9.65625 8.70312C9.65625 7.76562 9.8151 6.96875 10.1328 6.3125C10.4505 5.65104 10.9036 5.14844 11.4922 4.80469C12.0859 4.45573 12.7917 4.28125 13.6094 4.28125C14.3906 4.28125 15.0729 4.45573 15.6562 4.80469C16.2448 5.15365 16.7005 5.65885 17.0234 6.32031C17.3516 6.97656 17.5156 7.77083 17.5156 8.70312ZM11 8.70312C11 9.39062 11.0911 9.98698 11.2734 10.4922C11.4557 10.9974 11.737 11.388 12.1172 11.6641C12.4974 11.9401 12.987 12.0781 13.5859 12.0781C14.1797 12.0781 14.6667 11.9401 15.0469 11.6641C15.4323 11.388 15.7161 10.9974 15.8984 10.4922C16.0807 9.98698 16.1719 9.39062 16.1719 8.70312C16.1719 8.02083 16.0807 7.43229 15.8984 6.9375C15.7161 6.4375 15.4349 6.05208 15.0547 5.78125C14.6745 5.51042 14.1823 5.375 13.5781 5.375C12.6875 5.375 12.0339 5.66927 11.6172 6.25781C11.2057 6.84635 11 7.66146 11 8.70312ZM21.0625 4.4375V8.03125H25.8359V4.4375H27.1328V13H25.8359V9.13281H21.0625V13H19.7578V4.4375H21.0625ZM34.8594 0.84375V4.3125C35.7083 4.38542 36.4479 4.60677 37.0781 4.97656C37.7083 5.34115 38.1979 5.83854 38.5469 6.46875C38.8958 7.09896 39.0703 7.84896 39.0703 8.71875C39.0703 9.57292 38.901 10.3177 38.5625 10.9531C38.2292 11.5885 37.7474 12.0911 37.1172 12.4609C36.4922 12.8307 35.7396 13.0521 34.8594 13.125V16.8438H33.5938V13.125C32.7448 13.0625 32.0052 12.849 31.375 12.4844C30.75 12.1146 30.263 11.612 29.9141 10.9766C29.5651 10.3411 29.3906 9.58854 29.3906 8.71875C29.3906 7.84896 29.5573 7.09896 29.8906 6.46875C30.2292 5.83333 30.7135 5.33333 31.3438 4.96875C31.974 4.59896 32.737 4.38021 33.6328 4.3125V0.84375H34.8594ZM33.6328 5.39062C32.9714 5.44792 32.4271 5.61458 32 5.89062C31.5729 6.16667 31.2552 6.54167 31.0469 7.01562C30.8438 7.48958 30.7422 8.05729 30.7422 8.71875C30.7422 9.38021 30.8464 9.95052 31.0547 10.4297C31.263 10.9036 31.5807 11.2786 32.0078 11.5547C32.4349 11.8307 32.9766 12 33.6328 12.0625V5.39062ZM34.8594 5.40625V12.0625C35.5156 11.9948 36.0547 11.8203 36.4766 11.5391C36.9036 11.2578 37.2188 10.8802 37.4219 10.4062C37.6302 9.93229 37.7344 9.36979 37.7344 8.71875C37.7344 7.72917 37.4974 6.95573 37.0234 6.39844C36.5495 5.83594 35.8281 5.50521 34.8594 5.40625ZM42.5703 4.4375V9.82031C42.5703 9.92448 42.5677 10.0599 42.5625 10.2266C42.5573 10.388 42.5495 10.5625 42.5391 10.75C42.5286 10.9323 42.5182 11.1094 42.5078 11.2812C42.5026 11.4479 42.4948 11.5859 42.4844 11.6953L47.1562 4.4375H48.75V13H47.5391V7.75C47.5391 7.58333 47.5417 7.36979 47.5469 7.10938C47.5521 6.84896 47.5599 6.59375 47.5703 6.34375C47.5807 6.08854 47.5885 5.89062 47.5938 5.75L42.9375 13H41.3359V4.4375H42.5703ZM57.7812 4.4375V11.8984H59.0078V15.9609H57.75V13H51.6875V15.9609H50.4453V11.8984H51.1172C51.6068 11.2214 52.013 10.4792 52.3359 9.67188C52.6589 8.86458 52.9036 8.01823 53.0703 7.13281C53.237 6.24219 53.3255 5.34375 53.3359 4.4375H57.7812ZM56.5234 5.46875H54.4922C54.4453 6.22917 54.3333 7.0026 54.1562 7.78906C53.9844 8.57552 53.7552 9.32552 53.4688 10.0391C53.1823 10.7474 52.849 11.3672 52.4688 11.8984H56.5234V5.46875ZM64.0078 4.28125C64.737 4.28125 65.362 4.44271 65.8828 4.76562C66.4036 5.08854 66.8021 5.54167 67.0781 6.125C67.3542 6.70312 67.4922 7.38021 67.4922 8.15625V8.96094H61.5781C61.5938 9.96615 61.8438 10.7318 62.3281 11.2578C62.8125 11.7839 63.4948 12.0469 64.375 12.0469C64.9167 12.0469 65.3958 11.9974 65.8125 11.8984C66.2292 11.7995 66.6615 11.6536 67.1094 11.4609V12.6016C66.6771 12.7943 66.2474 12.9349 65.8203 13.0234C65.3984 13.112 64.8984 13.1562 64.3203 13.1562C63.4974 13.1562 62.7786 12.9896 62.1641 12.6562C61.5547 12.3177 61.0807 11.8229 60.7422 11.1719C60.4036 10.5208 60.2344 9.72396 60.2344 8.78125C60.2344 7.85938 60.388 7.0625 60.6953 6.39062C61.0078 5.71354 61.4453 5.19271 62.0078 4.82812C62.5755 4.46354 63.2422 4.28125 64.0078 4.28125ZM63.9922 5.34375C63.2995 5.34375 62.7474 5.57031 62.3359 6.02344C61.9245 6.47656 61.6797 7.10938 61.6016 7.92188H66.1328C66.1276 7.41146 66.0469 6.96354 65.8906 6.57812C65.7396 6.1875 65.5078 5.88542 65.1953 5.67188C64.8828 5.45312 64.4818 5.34375 63.9922 5.34375ZM71 4.4375V8.03125H75.7734V4.4375H77.0703V13H75.7734V9.13281H71V13H69.6953V4.4375H71ZM88.1562 15.9609H86.8906V13H79.8203V4.4375H81.125V11.8984H85.6641V4.4375H86.9609V11.9141H88.1562V15.9609ZM91.0703 4.4375V9.82031C91.0703 9.92448 91.0677 10.0599 91.0625 10.2266C91.0573 10.388 91.0495 10.5625 91.0391 10.75C91.0286 10.9323 91.0182 11.1094 91.0078 11.2812C91.0026 11.4479 90.9948 11.5859 90.9844 11.6953L95.6562 4.4375H97.25V13H96.0391V7.75C96.0391 7.58333 96.0417 7.36979 96.0469 7.10938C96.0521 6.84896 96.0599 6.59375 96.0703 6.34375C96.0807 6.08854 96.0885 5.89062 96.0938 5.75L91.4375 13H89.8359V4.4375H91.0703ZM103.211 4.29688C104.232 4.29688 104.99 4.52604 105.484 4.98438C105.979 5.44271 106.227 6.17448 106.227 7.17969V13H105.281L105.031 11.7344H104.969C104.729 12.0469 104.479 12.3099 104.219 12.5234C103.958 12.7318 103.656 12.8906 103.312 13C102.974 13.1042 102.557 13.1562 102.062 13.1562C101.542 13.1562 101.078 13.0651 100.672 12.8828C100.271 12.7005 99.9531 12.4245 99.7188 12.0547C99.4896 11.6849 99.375 11.2161 99.375 10.6484C99.375 9.79427 99.7135 9.13802 100.391 8.67969C101.068 8.22135 102.099 7.97135 103.484 7.92969L104.961 7.86719V7.34375C104.961 6.60417 104.802 6.08594 104.484 5.78906C104.167 5.49219 103.719 5.34375 103.141 5.34375C102.693 5.34375 102.266 5.40885 101.859 5.53906C101.453 5.66927 101.068 5.82292 100.703 6L100.305 5.01562C100.69 4.81771 101.133 4.64844 101.633 4.50781C102.133 4.36719 102.659 4.29688 103.211 4.29688ZM104.945 8.78125L103.641 8.83594C102.573 8.8776 101.82 9.05208 101.383 9.35938C100.945 9.66667 100.727 10.1016 100.727 10.6641C100.727 11.1536 100.875 11.5156 101.172 11.75C101.469 11.9844 101.862 12.1016 102.352 12.1016C103.112 12.1016 103.734 11.8906 104.219 11.4688C104.703 11.0469 104.945 10.4141 104.945 9.57031V8.78125ZM115.32 13H114V5.52344H111.398C111.294 6.8724 111.161 8.02865 111 8.99219C110.844 9.95052 110.646 10.7344 110.406 11.3438C110.172 11.9479 109.885 12.3932 109.547 12.6797C109.214 12.9609 108.815 13.1016 108.352 13.1016C108.211 13.1016 108.078 13.0938 107.953 13.0781C107.828 13.0625 107.721 13.0365 107.633 13V12.0156C107.701 12.0365 107.771 12.0521 107.844 12.0625C107.922 12.0729 108.003 12.0781 108.086 12.0781C108.32 12.0781 108.534 11.9818 108.727 11.7891C108.924 11.5911 109.102 11.2943 109.258 10.8984C109.419 10.5026 109.562 10.0026 109.688 9.39844C109.812 8.78906 109.922 8.07292 110.016 7.25C110.115 6.42188 110.201 5.48438 110.273 4.4375H115.32V13ZM119.359 7.96875H121.984C122.714 7.96875 123.32 8.0599 123.805 8.24219C124.289 8.42448 124.651 8.69531 124.891 9.05469C125.135 9.41406 125.258 9.85938 125.258 10.3906C125.258 10.9219 125.138 11.3828 124.898 11.7734C124.664 12.1641 124.299 12.4661 123.805 12.6797C123.315 12.8932 122.682 13 121.906 13H118.055V4.4375H119.359V7.96875ZM123.953 10.4531C123.953 9.92708 123.766 9.5625 123.391 9.35938C123.021 9.15104 122.503 9.04688 121.836 9.04688H119.359V11.9453H121.844C122.469 11.9453 122.977 11.8307 123.367 11.6016C123.758 11.3672 123.953 10.9844 123.953 10.4531ZM128.797 4.4375V8.03125H133.57V4.4375H134.867V13H133.57V9.13281H128.797V13H127.492V4.4375H128.797ZM145 8.70312C145 9.40625 144.909 10.0339 144.727 10.5859C144.544 11.138 144.281 11.6042 143.938 11.9844C143.594 12.3646 143.177 12.6562 142.688 12.8594C142.203 13.0573 141.654 13.1562 141.039 13.1562C140.466 13.1562 139.94 13.0573 139.461 12.8594C138.987 12.6562 138.576 12.3646 138.227 11.9844C137.883 11.6042 137.615 11.138 137.422 10.5859C137.234 10.0339 137.141 9.40625 137.141 8.70312C137.141 7.76562 137.299 6.96875 137.617 6.3125C137.935 5.65104 138.388 5.14844 138.977 4.80469C139.57 4.45573 140.276 4.28125 141.094 4.28125C141.875 4.28125 142.557 4.45573 143.141 4.80469C143.729 5.15365 144.185 5.65885 144.508 6.32031C144.836 6.97656 145 7.77083 145 8.70312ZM138.484 8.70312C138.484 9.39062 138.576 9.98698 138.758 10.4922C138.94 10.9974 139.221 11.388 139.602 11.6641C139.982 11.9401 140.471 12.0781 141.07 12.0781C141.664 12.0781 142.151 11.9401 142.531 11.6641C142.917 11.388 143.201 10.9974 143.383 10.4922C143.565 9.98698 143.656 9.39062 143.656 8.70312C143.656 8.02083 143.565 7.43229 143.383 6.9375C143.201 6.4375 142.919 6.05208 142.539 5.78125C142.159 5.51042 141.667 5.375 141.062 5.375C140.172 5.375 139.518 5.66927 139.102 6.25781C138.69 6.84635 138.484 7.66146 138.484 8.70312Z" fill="#140A32"/>
</svg>
